<?xml version="1.0" encoding="UTF-8"?>
<svg width="24px" height="24px" viewBox="0 0 24 24" version="1.1" xmlns="http://www.w3.org/2000/svg">
    <title>Music Note</title>
    <g stroke="none" stroke-width="1" fill="none" fill-rule="evenodd">
        <path d="M12,3 L20,5 L20,16.5 C20,18.9853 17.9853,21 15.5,21 C13.0147,21 11,18.9853 11,16.5 C11,14.0147 13.0147,12 15.5,12 C16.0002,12 16.4829,12.0698 16.9357,12.2012 L16.9357,7.61803 L12,6.38197 L12,17.5 C12,19.9853 9.98528,22 7.5,22 C5.01472,22 3,19.9853 3,17.5 C3,15.0147 5.01472,13 7.5,13 C8.00018,13 8.48285,13.0698 8.93573,13.2012 L8.93573,5 L12,3 Z" fill="#3182CE"/>
    </g>
</svg> 